<?xml version="1.0" encoding="UTF-8" standalone="no"?>
<!DOCTYPE svg PUBLIC "-//W3C//DTD SVG 1.1//EN" "http://www.w3.org/Graphics/SVG/1.1/DTD/svg11.dtd">
<svg width="100%" height="100%" viewBox="0 0 3718 5389" version="1.1" xmlns="http://www.w3.org/2000/svg" xmlns:xlink="http://www.w3.org/1999/xlink" xml:space="preserve" xmlns:serif="http://www.serif.com/" style="fill-rule:evenodd;clip-rule:evenodd;stroke-linejoin:round;stroke-miterlimit:2;">
    <g transform="matrix(1,0,0,1,132.049963,147.177986)">
        <g transform="matrix(3.644352,0,0,3.644352,-77.762012,84.776172)">
            <g transform="matrix(1,0,0,1.447647,-14.896463,-65.538118)">
                <path d="M1019.999,1.5L1019.999,1022.5C1015.798,1022.657 5.877,1022.655 0,1022.5L0,1.5C0.502,1.461 0.997,1.349 1.498,1.311C1.593,1.303 1006.557,1.311 1015.5,1.306C1017.763,1.305 1017.745,1.375 1019.999,1.5Z" style="fill:rgb(3,52,234);"/>
            </g>
            <g id="compressed">
                <path d="M367.137,383.465C368.072,375.383 371.286,366.697 374.791,360.676C375.293,359.814 378.415,355.309 380.268,353.29C388.345,344.484 398.99,336.41 416.5,334.504C420.238,334.097 420.582,334.06 463.5,334.129C585.393,334.326 585.438,333.78 593.439,334.911C604.511,336.477 614.015,342.217 617.741,345.186C625.366,351.261 625.778,352.345 628.358,355.605C635.866,365.089 637.221,372.037 637.678,373.445C645.166,396.542 634.652,416.361 634.567,416.536C631.233,423.36 627.35,427.708 626.58,428.57C615.325,441.174 604.605,443.622 601.659,444.886C600.504,445.381 600.114,445.226 600.097,446.486C600.087,447.214 602.814,451.363 603.081,451.769C605.529,455.494 605.57,455.452 607.853,459.286C610.827,464.279 616.324,472.683 617.922,475.242C621.701,481.296 621.768,481.245 622.092,481.774C622.579,482.567 626.004,488.154 628.252,491.649C633.182,499.314 635.688,503.675 636.758,505.333C638.835,508.553 638.894,508.51 639.07,508.792C643.662,516.128 643.681,516.11 644.061,516.759C646.746,521.345 646.959,521.227 647.08,521.672C647.177,522.026 646.666,523.193 646.425,523.3C646.252,523.377 643.92,523.302 643.499,523.302C625.999,523.328 626.023,523.351 608.499,523.319C604.949,523.313 604.51,523.439 602.695,520.385C598.001,512.487 597.692,512.689 593.1,504.738C592.895,504.384 574.525,475.272 574.166,474.718C571.215,470.162 571.241,470.168 568.354,465.591C559.5,451.552 559.411,451.635 558.674,450.396C556.274,446.363 541.636,423.3 540.957,422.206C539.413,419.721 539.408,419.75 537.801,417.309C537.644,417.072 536.311,415.048 535.899,414.307C535.816,414.158 534.971,412.64 536.381,412.235C536.782,412.12 562.808,412.297 578.499,412.233C582.019,412.219 594.732,413.841 602.189,402.307C609.758,390.598 602.976,380.14 600.599,377.416C594.057,369.918 586.581,369.598 585.499,369.509C582.575,369.268 463.14,369.407 452.5,369.42C421.561,369.456 418.686,368.953 413.574,371.645C406.008,375.629 404.174,380.45 403.201,382.357C398.182,392.187 403.172,405.586 414.462,410.584C419.85,412.969 420.087,412.472 456.5,412.56C479.921,412.617 494.901,411.119 511.685,423.229C520.074,429.282 523.774,434.881 526.251,438.656C533.722,450.041 535.631,464.536 534.131,475.454C533.655,478.922 531.579,486.837 530.074,490.316C530.062,490.345 526.9,496.384 526.271,497.355C521.924,504.069 519.358,506.197 518.288,507.291C512.368,513.345 503.506,518.61 494.423,521.216C484,524.205 483.776,523.264 386.5,523.392C369.215,523.415 369.025,523.544 368.233,522.714C367.687,522.143 367.792,520.999 367.787,520.494C367.768,518.255 367.635,502.724 367.775,492.505C367.815,489.615 367.609,488.645 370.5,488.639C378.1,488.624 426.232,488.527 465.499,488.69C479.056,488.746 484.822,489.18 491.415,484.375C498.68,479.079 500.005,471.349 500.13,469.465C500.711,460.702 494.798,455.051 493.84,454.135C485.99,446.631 481.463,447.545 463.5,447.509C417.276,447.417 417.07,448.212 404.477,444.58C396.372,442.243 388.168,436.239 385.819,434.154C384.296,432.801 379.498,427.782 378.979,427.101C365.846,409.855 366.031,394.095 367.137,383.465Z" style="fill:rgb(252,252,254);"/>
                <g transform="matrix(1,0,0,1,13.262811,11.052342)">
                    <path d="M657.03,317.498C657.089,306.754 657.02,305.249 656.323,304.731C655.661,304.239 655.544,304.463 610.5,304.35C586.674,304.291 586.633,304.49 585.683,304.101C584.51,303.62 584.57,302.616 584.621,292.502C584.714,273.736 584.284,272.238 585.311,271.276C585.957,270.67 587.839,270.834 589.506,270.831C596.625,270.817 633.832,270.744 678.499,270.854C691.651,270.886 689.838,284.311 689.839,284.5C689.85,291.061 689.967,361.495 689.827,366.518C689.741,369.611 688.575,369.12 685.494,369.127C658.294,369.195 658.109,369.278 657.457,368.536C657.085,368.112 656.841,367.834 656.965,361.499C657.201,349.441 656.808,324.102 657.03,317.498Z" style="fill:rgb(252,252,254);"/>
                </g>
            </g>
            <g id="snapreport" transform="matrix(1,0,0,1,44.557352,-200.392781)">
                <g transform="matrix(1,0,0,1,-7.0735,231.657138)">
                    <path d="M517.949,629.847C518.613,631.129 518.565,631.157 518.666,631.23C518.907,631.406 519.251,631.349 519.542,631.417C519.848,631.488 521.636,631.906 523.145,632.976C529.335,637.365 528.399,646.824 528.4,647.5C528.408,660.536 528.69,666.461 528.217,667.358C527.812,668.128 527.614,668.418 515.51,668.215C513.03,668.173 511.103,668.911 510.852,663.472C510.409,653.889 511.935,650.26 512.099,649.425C512.844,645.644 511.237,641.763 509.533,640.462C505.854,637.654 503.227,637.822 498.5,637.816C480.846,637.793 474.387,637.664 473.285,638.125C471.76,638.763 472.502,639.412 472.248,663.495C472.213,666.835 472.834,668.191 469.497,668.201C456.794,668.238 456.798,668.093 456.681,668.049C455.387,667.561 455.736,665.033 455.738,661.501C455.774,598.025 455.554,598.027 455.719,592.51C455.719,592.502 455.552,590.605 457.47,590.298C458.048,590.206 472.22,590.252 473.503,590.257C505.782,590.363 509.754,589.775 515.438,591.697C520.181,593.3 527.428,596.262 529.734,607.446C530.955,613.371 528.883,620.816 526.717,623.651C523.21,628.241 521.121,628.492 517.949,629.847ZM512.878,615.562C512.882,615.193 513.026,614.835 513.03,614.465C513.065,611.218 512.004,609.67 511.776,609.326C508.821,604.86 506.719,605.069 491.496,605.158C473.704,605.262 473.486,604.925 472.743,605.726C472.242,606.266 472.258,608.275 472.26,608.5C472.332,617.391 472.136,620.207 472.216,621.529C472.375,624.159 474.153,623.619 482.5,623.522C499.579,623.323 507.222,624.848 510.567,620.556C512.671,617.856 512.6,616.63 512.878,615.562Z" style="fill:rgb(250,251,253);"/>
                </g>
                <g transform="matrix(1,0,0,1,-7.0735,231.657138)">
                    <path d="M678.968,636.45C679.101,638.899 680.261,646.2 675.663,655.581C673.368,660.265 669.28,663.119 668.577,663.61C667.049,664.677 663.122,668.532 650.506,669.58C640.088,670.445 631.088,667.282 626.63,662.31C624.331,659.746 624.532,663.312 624.542,663.504C624.636,665.181 624.636,665.168 624.629,684.501C624.629,685.838 624.977,688.984 623.492,689.482C622.699,689.748 610.308,689.779 609.501,689.498C607.758,688.893 608.632,688.104 608.441,660.501C608.418,657.141 608.448,657.143 608.42,618.5C608.418,615.495 608.018,612.932 610.517,612.872C613.75,612.794 620.613,612.882 621.491,612.893C625.425,612.943 624.673,614.563 624.509,618.499C624.502,618.661 624.433,620.319 625.475,620.286C626.652,620.249 626.285,618.425 630.584,615.634C636.528,611.775 643.336,611.495 644.498,611.448C646.815,611.353 675.716,608.515 678.968,636.45ZM642.497,655.899C648.554,655.867 659.384,655.428 662.36,644.465C663.787,639.21 662.64,628.535 651.441,625.742C644.109,623.914 622.93,623.6 624.538,642.497C625.355,652.095 633.845,654.704 638.483,655.607C639.338,655.774 642.175,655.887 642.497,655.899Z" style="fill:rgb(251,251,253);"/>
                </g>
                <g transform="matrix(1,0,0,1,-7.0735,231.657138)">
                    <path d="M389.217,669.496C389.186,687.256 389.643,688.577 388.398,689.333C387.476,689.893 375.055,689.722 374.485,689.544C372.948,689.064 373.319,688.125 373.297,676.501C373.288,671.62 373.189,619.75 373.327,615.492C373.425,612.483 374.498,612.855 377.496,612.88C387.305,612.962 388.971,612.39 389.243,614.541C389.283,614.86 389.236,617.144 389.089,618.588C388.992,619.547 388.802,619.727 389.629,620.22C390.197,620.559 390.248,620.373 390.673,619.879C393.169,616.979 393.958,615.39 401.557,612.659C403.29,612.036 415.036,609.528 425.569,613.311C427.584,614.035 445.115,618.253 443.6,643.505C442.68,658.849 432.317,664.451 431.268,665.124C427.12,667.783 417.474,670.62 407.51,669.403C399.833,668.465 397.73,667.446 392.477,663.529C391.556,662.842 390.766,661.709 390.475,661.571C389.108,660.926 389.152,663.264 389.156,663.447C389.213,666.472 389.232,666.448 389.217,669.496ZM406.485,655.889C407.815,655.885 413.298,656.38 419.279,654.008C421.411,653.162 425.656,650.009 426.743,645.568C428.765,637.301 426.179,628.982 417.563,626.307C408.34,623.444 394.17,624.549 390.223,634.389C387.309,641.651 388.277,654.807 406.485,655.889Z" style="fill:rgb(251,251,253);"/>
                </g>
                <g transform="matrix(1,0,0,1,-7.0735,231.657138)">
                    <path d="M163.441,668.869C162.2,668.652 138.085,666.717 137.549,644.499C137.543,644.27 137.494,642.215 138.619,641.832C139.003,641.701 141.268,641.713 141.499,641.714C146.386,641.74 151.885,641.671 152.49,641.694C153.656,641.739 153.772,641.583 154.554,642.461C155.421,643.434 154.007,653.366 168.465,654.906C195.306,657.765 195.302,647.859 195.368,647.475C196.465,641.127 190.751,639.188 190.67,639.146C189.358,638.459 187.15,637.303 172.478,635.727C164.815,634.904 164.209,634.486 160.439,633.786C139.858,629.962 136.134,615.608 139.832,604.616C145.13,588.866 169.177,588.643 171.502,588.594C184.51,588.323 196.543,589.514 204.332,596.68C210.437,602.297 211.344,610.362 211.338,612.498C211.33,615.337 209.799,614.79 201.498,614.764C195.388,614.745 194.245,615.383 193.841,612.449C193.766,611.905 193.288,608.441 190.567,606.419C188.495,604.879 187.033,604.468 184.418,603.889C172.912,601.342 164.171,603.964 162.49,604.468C161.777,604.682 156.577,606.242 156.397,611.497C156.154,618.57 165.605,619.574 169.55,620.208C193.396,624.04 193.489,623.648 198.576,625.292C212.576,629.817 213.024,641.655 213.094,643.518C213.647,658.131 204.602,662.813 202.783,663.964C193.796,669.645 178.273,670.95 163.441,668.869Z" style="fill:rgb(250,251,253);"/>
                </g>
                <g transform="matrix(1,0,0,1,-7.0735,231.657138)">
                    <path d="M710.445,668.795C709.73,668.641 704.454,667.502 701.7,666.11C696.151,663.304 693.228,660.061 692.623,659.39C686.518,652.616 685.969,643.517 685.966,643.478C685.837,642.011 686.09,636.638 686.32,635.467C688.209,625.871 691.584,622.709 693.037,621.085C704.635,608.126 733.226,608.488 745.364,618.669C754.427,626.271 754.822,636.6 754.881,637.469C755.581,647.639 753.379,654.052 747.448,660.454C745.498,662.56 740.933,665.986 735.522,667.568C722.654,671.328 712.734,669.178 710.445,668.795ZM724.556,655.929C743.935,653.153 738.365,635.57 737.527,633.489C734.978,627.157 727.234,625.009 722.488,624.862C708.112,624.415 704.766,631.269 704.572,631.549C701.524,635.932 700.919,645.22 704.968,650.131C709.598,655.746 716.721,656.773 724.556,655.929Z" style="fill:rgb(250,251,253);"/>
                </g>
                <g transform="matrix(1,0,0,1,-7.0735,231.657138)">
                    <path d="M363.105,662.505C363.116,665.274 363.555,667.962 361.465,668.227C361.427,668.232 352.239,668.38 350.519,668.263C343.335,667.776 344.687,661.054 344.339,660.592C343.727,659.782 342.697,660.517 342.583,660.599C342.172,660.892 342.863,661.534 338.239,665.177C330.583,671.207 306.559,671.823 299.654,661.404C299.07,660.524 296.027,655.202 297.332,649.458C298.936,642.395 301.901,636.853 319.493,635.398C340.212,633.683 340.24,634.148 341.475,634.01C342.897,633.85 344.056,633.47 343.694,630.475C342.785,622.948 332.21,623.37 326.501,623.529C315.927,623.823 317.23,629.83 315.629,630.666C314.651,631.177 314.594,631.076 305.493,631.182C305.109,631.187 301.045,631.235 300.7,631.038C299.647,630.441 299.878,628.741 299.906,628.533C300.229,626.152 301.344,610.127 333.505,611.357C339.882,611.602 348.439,613.235 352.754,617.223C360.155,624.061 359.21,629.983 359.273,640.502C359.351,653.577 359.003,655.177 360.576,656.409C360.8,656.584 362.55,657.285 362.894,658.364C363.075,658.932 363.103,662.173 363.105,662.505ZM315.625,647.619C315.373,647.994 315.032,648.304 314.78,648.68C312.551,652.002 314.335,658.121 326.491,657.344C332.717,656.947 339.164,654.827 341.516,651.513C341.859,651.031 344.043,647.953 343.776,644.469C343.57,641.789 341.08,643.01 338.494,643.46C337.702,643.597 337.718,643.577 328.496,644.458C323.489,644.936 323.483,644.754 320.47,645.353C316.857,646.071 315.843,647.46 315.625,647.619Z" style="fill:rgb(250,250,253);"/>
                </g>
                <g transform="matrix(1,0,0,1,-7.0735,231.657138)">
                    <path d="M564.416,655.927C565.922,656.186 576.791,658.062 583.13,652.092C585.212,650.131 586.338,650.793 596.496,650.762C598.543,650.755 598.584,650.5 599.292,650.901C599.764,651.169 600.774,651.741 597.302,657.385C594.513,661.921 592.048,663.63 587.75,665.988C579.934,670.275 559.102,672.302 546.596,663.363C542.647,660.54 537.159,654.391 536.299,645.519C535.14,633.57 538.122,628.018 538.842,626.678C540.944,622.765 544.34,615.837 558.445,612.299C562.624,611.251 573.741,610.335 581.401,612.808C588.747,615.18 596.638,618.925 600.235,632.563C600.365,633.055 602.144,642.971 600.228,644.056C599.598,644.412 599.542,644.334 570.5,644.404C554.9,644.442 552.724,643.79 552.481,645.496C552.369,646.28 553.368,652.048 560.397,654.767C562.361,655.527 562.37,655.465 564.416,655.927ZM570.493,634.146C582.761,634.062 582.786,634.253 583.731,633.879C585.602,633.138 583.692,628.419 578.401,625.694C573.481,623.159 558.787,622.372 553.895,630.733C551.547,634.746 554.848,634.126 559.502,634.126C565.004,634.126 564.991,634.147 570.493,634.146Z" style="fill:rgb(250,251,253);"/>
                </g>
                <g transform="matrix(1,0,0,1,-7.0735,231.657138)">
                    <path d="M270.915,639.495C270.855,637.785 271.208,631.813 266.772,628.162C260.131,622.699 249.491,625.379 245.617,627.703C238.319,632.083 238.844,639.803 238.841,640.503C238.737,663.52 238.881,663.503 238.863,665.502C238.852,666.725 238.799,668.198 236.488,668.253C235.53,668.275 229.812,668.41 224.518,668.221C224.366,668.215 222.713,668.295 222.477,666.503C222.396,665.887 222.393,640.74 222.392,638.5C222.392,636.66 222.389,617.968 222.444,615.498C222.503,612.865 223.42,612.829 225.495,612.862C234.692,613.011 234.688,612.792 236.486,612.897C239.736,613.087 238.923,615.817 238.748,618.48C238.678,619.548 238.541,619.765 239.521,620.196C240.926,620.815 240.687,617.148 248.572,613.674C258.116,609.47 273.641,610.66 280.632,617.364C287.312,623.77 287.323,631.925 287.381,632.511C287.682,635.526 287.528,663.006 287.475,665.499C287.413,668.43 286.425,668.179 283.494,668.205C273.175,668.297 272.036,668.238 271.413,667.575C270.533,666.639 270.991,666.432 270.915,639.495Z" style="fill:rgb(250,251,253);"/>
                </g>
                <g transform="matrix(1,0,0,1,-7.0735,231.657138)">
                    <path d="M840.899,607.503C840.905,609.653 840.473,612.467 842.415,612.878C842.69,612.936 854.977,612.782 855.46,612.882C857.296,613.265 857.284,613.64 857.312,615.506C857.321,616.114 857.39,624.009 857.23,624.439C856.619,626.08 856.247,625.87 854.502,625.867C849.498,625.859 849.523,625.817 844.505,625.832C844.348,625.833 842.628,625.838 842.549,625.859C840.822,626.316 840.979,626.727 840.921,628.504C840.912,628.781 840.869,647.501 840.947,648.479C841.523,655.734 846.452,654.662 854.496,654.727C858.018,654.755 857.275,656.274 857.28,660.502C857.285,665.07 857.502,666.995 856.75,667.749C856.075,668.425 855.801,668.28 845.498,668.262C839.096,668.251 831.255,668.841 826.654,661.406C824.63,658.136 824.92,656.593 824.824,638.498C824.773,628.667 825.321,626.609 823.7,626.041C822.039,625.459 813.705,626.39 812.583,625.399C812.247,625.101 812.046,625.074 811.957,619.508C811.889,615.326 811.893,613.498 813.336,613.055C815.022,612.537 823.274,613.456 824.331,612.335C825.551,611.041 824.196,598.583 825.234,597.325C826.01,596.383 826.21,596.478 835.5,596.495C837.206,596.498 840.229,596.235 840.705,597.386C840.981,598.055 840.913,599.444 840.899,607.503Z" style="fill:rgb(249,250,253);"/>
                </g>
                <g transform="matrix(1,0,0,1,-7.0735,231.657138)">
                    <path d="M776.502,668.203C765.853,668.229 764.674,668.491 764.315,666.533C764.043,665.048 764.256,627.86 764.275,624.497C764.328,615.133 763.889,613.638 765.604,612.95C765.888,612.836 776.949,612.857 777.483,612.883C780.115,613.012 780.37,613.891 780.373,615.503C780.375,617.063 780.172,617.03 780.166,618.591C780.16,619.787 780.179,620.044 781.371,620.19C781.483,620.203 782.53,618.764 782.624,618.635C782.691,618.543 783.054,618.044 783.547,617.551C787.27,613.825 794.11,612.37 798.481,612.188C804.612,611.933 804.839,613.027 805.057,614.529C805.107,614.874 804.918,624.405 804.879,624.592C804.615,625.873 803.606,626.076 803.443,626.109C802.805,626.238 802.143,626.12 801.493,626.129C792.183,626.258 786.995,627.678 783.307,632.356C779.836,636.76 780.631,640.88 780.54,657.501C780.489,666.738 780.773,666.989 779.747,667.842C779.16,668.33 779.072,668.108 776.502,668.203Z" style="fill:rgb(250,251,253);"/>
                </g>
            </g>
        </g>
    </g>
</svg>
