<?xml version="1.0" encoding="UTF-8" standalone="no"?>
<!DOCTYPE svg PUBLIC "-//W3C//DTD SVG 1.1//EN" "http://www.w3.org/Graphics/SVG/1.1/DTD/svg11.dtd">
<svg width="100%" height="100%" viewBox="0 0 658 462" version="1.1" xmlns="http://www.w3.org/2000/svg" xmlns:xlink="http://www.w3.org/1999/xlink" xml:space="preserve" xmlns:serif="http://www.serif.com/" style="fill-rule:evenodd;clip-rule:evenodd;stroke-linejoin:round;stroke-miterlimit:2;">
    <g transform="matrix(1,0,0,1,-203.033333,-273.59785)">
        <g transform="matrix(2,0,0,1.321168,-0,149.349173)">
            <g transform="matrix(0.5,0,0,0.756906,0,0)">
                <rect x="203.033" y="124.249" width="560.633" height="462" style="fill:rgb(0,153,102);"/>
            </g>
            <g transform="matrix(0.5,0,0,0.756906,0,0)">
                <g transform="matrix(366.666667,0,0,366.666667,203.033333,490.915344)">
                    <path d="M0.411,0.014C0.355,0.014 0.304,0.005 0.257,-0.014C0.21,-0.033 0.169,-0.059 0.134,-0.092C0.098,-0.125 0.071,-0.165 0.052,-0.21C0.033,-0.255 0.023,-0.304 0.023,-0.357C0.023,-0.41 0.033,-0.459 0.052,-0.504C0.071,-0.549 0.097,-0.588 0.132,-0.621C0.167,-0.654 0.208,-0.68 0.255,-0.699C0.302,-0.717 0.353,-0.726 0.409,-0.726C0.465,-0.726 0.517,-0.717 0.564,-0.699C0.611,-0.68 0.651,-0.654 0.686,-0.621C0.721,-0.588 0.748,-0.549 0.767,-0.504C0.785,-0.459 0.795,-0.409 0.795,-0.356C0.795,-0.303 0.785,-0.255 0.767,-0.209C0.748,-0.165 0.721,-0.125 0.686,-0.091C0.651,-0.058 0.611,-0.032 0.564,-0.013C0.517,0.005 0.466,0.014 0.411,0.014ZM0.72,0.065L0.375,-0.28L0.483,-0.388L0.828,-0.043L0.72,0.065ZM0.409,-0.162C0.446,-0.162 0.479,-0.17 0.506,-0.186C0.533,-0.202 0.554,-0.225 0.569,-0.254C0.584,-0.283 0.591,-0.318 0.591,-0.357C0.591,-0.386 0.587,-0.413 0.579,-0.436C0.57,-0.46 0.558,-0.48 0.542,-0.497C0.526,-0.515 0.507,-0.527 0.484,-0.536C0.462,-0.545 0.437,-0.55 0.409,-0.55C0.372,-0.55 0.339,-0.542 0.312,-0.526C0.285,-0.511 0.264,-0.488 0.249,-0.46C0.234,-0.431 0.227,-0.396 0.227,-0.357C0.227,-0.327 0.231,-0.3 0.24,-0.276C0.248,-0.252 0.26,-0.232 0.276,-0.214C0.292,-0.198 0.311,-0.184 0.334,-0.176C0.356,-0.167 0.381,-0.162 0.409,-0.162Z" style="fill:white;fill-rule:nonzero;"/>
                </g>
                <g transform="matrix(366.666667,0,0,366.666667,494.9,490.915344)">
                    <path d="M0.006,-0L0.277,-0.712L0.481,-0.712L0.749,-0L0.541,-0L0.342,-0.605L0.414,-0.605L0.21,-0L0.006,-0ZM0.182,-0.12L0.182,-0.276L0.58,-0.276L0.58,-0.12L0.182,-0.12Z" style="fill:white;fill-rule:nonzero;"/>
                </g>
                <g transform="matrix(366.666667,0,0,366.666667,763.666667,490.915344)">
                    <path d="M0.155,0.012C0.124,0.012 0.098,0.001 0.077,-0.02C0.056,-0.041 0.046,-0.067 0.046,-0.098C0.046,-0.129 0.056,-0.156 0.077,-0.177C0.098,-0.198 0.124,-0.209 0.155,-0.209C0.186,-0.209 0.212,-0.198 0.233,-0.177C0.253,-0.156 0.263,-0.129 0.263,-0.098C0.263,-0.067 0.253,-0.041 0.233,-0.02C0.212,0.001 0.186,0.012 0.155,0.012Z" style="fill:rgb(0,153,102);fill-rule:nonzero;"/>
                </g>
                <g transform="matrix(366.666667,0,0,366.666667,876.966667,490.915344)">
                </g>
            </g>
        </g>
    </g>
</svg>
