<?xml version="1.0" encoding="UTF-8" standalone="no"?>
<!DOCTYPE svg PUBLIC "-//W3C//DTD SVG 1.1//EN" "http://www.w3.org/Graphics/SVG/1.1/DTD/svg11.dtd">
<svg width="100%" height="100%" viewBox="0 0 1055 242" version="1.1" xmlns="http://www.w3.org/2000/svg" xmlns:xlink="http://www.w3.org/1999/xlink" xml:space="preserve" xmlns:serif="http://www.serif.com/" style="fill-rule:evenodd;clip-rule:evenodd;stroke-linejoin:round;stroke-miterlimit:2;">
    <g transform="matrix(1,0,0,1,-13.683333,-384.54785)">
        <g transform="matrix(2,0,0,1.321168,0,149.349173)">
            <g transform="matrix(0.5,0,0,0.756906,0,0)">
                <rect x="271.092" y="235.199" width="293.058" height="241.5" style="fill:rgb(0,153,102);"/>
            </g>
            <g transform="matrix(0.5,0,0,0.756906,0,0)">
                <g transform="matrix(191.666667,0,0,191.666667,4.675,426.865344)">
                    <path d="M0.047,-0L0.047,-0.492L0.243,-0.492L0.243,-0L0.047,-0ZM0.35,-0L0.35,-0.282C0.35,-0.299 0.345,-0.312 0.335,-0.322C0.325,-0.331 0.312,-0.336 0.297,-0.336C0.286,-0.336 0.277,-0.334 0.269,-0.33C0.26,-0.325 0.254,-0.319 0.249,-0.311C0.245,-0.303 0.243,-0.293 0.243,-0.282L0.167,-0.31C0.167,-0.35 0.176,-0.384 0.194,-0.413C0.211,-0.442 0.235,-0.464 0.265,-0.479C0.295,-0.494 0.329,-0.502 0.367,-0.502C0.4,-0.502 0.431,-0.494 0.458,-0.478C0.484,-0.462 0.506,-0.44 0.522,-0.412C0.538,-0.383 0.546,-0.35 0.546,-0.311L0.546,-0L0.35,-0ZM0.653,-0L0.653,-0.282C0.653,-0.299 0.648,-0.312 0.638,-0.322C0.628,-0.331 0.615,-0.336 0.6,-0.336C0.589,-0.336 0.58,-0.334 0.572,-0.33C0.563,-0.325 0.557,-0.319 0.552,-0.311C0.548,-0.303 0.546,-0.293 0.546,-0.282L0.431,-0.281C0.431,-0.327 0.44,-0.367 0.459,-0.4C0.477,-0.433 0.502,-0.458 0.535,-0.476C0.568,-0.493 0.605,-0.502 0.647,-0.502C0.686,-0.502 0.721,-0.494 0.752,-0.477C0.782,-0.46 0.806,-0.436 0.823,-0.405C0.84,-0.374 0.849,-0.336 0.849,-0.292L0.849,-0L0.653,-0Z" style="fill:rgb(0,153,102);fill-rule:nonzero;"/>
                </g>
                <g transform="matrix(191.666667,0,0,191.666667,170.083333,426.865344)">
                    <path d="M0.191,-0L-0.003,-0.492L0.205,-0.492L0.319,-0.073L0.233,-0.073L0.345,-0.492L0.552,-0.492L0.359,-0L0.191,-0ZM0.084,0.21L0.227,-0.113L0.359,-0L0.276,0.21L0.084,0.21Z" style="fill:rgb(0,153,102);fill-rule:nonzero;"/>
                </g>
                <g transform="matrix(191.666667,0,0,191.666667,271.091667,426.865344)">
                    <path d="M0.411,0.014C0.355,0.014 0.304,0.005 0.257,-0.014C0.21,-0.033 0.169,-0.059 0.134,-0.092C0.098,-0.125 0.071,-0.165 0.052,-0.21C0.033,-0.255 0.023,-0.304 0.023,-0.357C0.023,-0.41 0.033,-0.459 0.052,-0.504C0.071,-0.549 0.097,-0.588 0.132,-0.621C0.167,-0.654 0.208,-0.68 0.255,-0.699C0.302,-0.717 0.353,-0.726 0.409,-0.726C0.465,-0.726 0.517,-0.717 0.564,-0.699C0.611,-0.68 0.651,-0.654 0.686,-0.621C0.721,-0.588 0.748,-0.549 0.767,-0.504C0.785,-0.459 0.795,-0.409 0.795,-0.356C0.795,-0.303 0.785,-0.255 0.767,-0.209C0.748,-0.165 0.721,-0.125 0.686,-0.091C0.651,-0.058 0.611,-0.032 0.564,-0.013C0.517,0.005 0.466,0.014 0.411,0.014ZM0.72,0.065L0.375,-0.28L0.483,-0.388L0.828,-0.043L0.72,0.065ZM0.409,-0.162C0.446,-0.162 0.479,-0.17 0.506,-0.186C0.533,-0.202 0.554,-0.225 0.569,-0.254C0.584,-0.283 0.591,-0.318 0.591,-0.357C0.591,-0.386 0.587,-0.413 0.579,-0.436C0.57,-0.46 0.558,-0.48 0.542,-0.497C0.526,-0.515 0.507,-0.527 0.484,-0.536C0.462,-0.545 0.437,-0.55 0.409,-0.55C0.372,-0.55 0.339,-0.542 0.312,-0.526C0.285,-0.511 0.264,-0.488 0.249,-0.46C0.234,-0.431 0.227,-0.396 0.227,-0.357C0.227,-0.327 0.231,-0.3 0.24,-0.276C0.248,-0.252 0.26,-0.232 0.276,-0.214C0.292,-0.198 0.311,-0.184 0.334,-0.176C0.356,-0.167 0.381,-0.162 0.409,-0.162Z" style="fill:white;fill-rule:nonzero;"/>
                </g>
                <g transform="matrix(191.666667,0,0,191.666667,423.658333,426.865344)">
                    <path d="M0.006,-0L0.277,-0.712L0.481,-0.712L0.749,-0L0.541,-0L0.342,-0.605L0.414,-0.605L0.21,-0L0.006,-0ZM0.182,-0.12L0.182,-0.276L0.58,-0.276L0.58,-0.12L0.182,-0.12Z" style="fill:white;fill-rule:nonzero;"/>
                </g>
                <g transform="matrix(191.666667,0,0,191.666667,564.15,426.865344)">
                    <path d="M0.155,0.012C0.124,0.012 0.098,0.001 0.077,-0.02C0.056,-0.041 0.046,-0.067 0.046,-0.098C0.046,-0.129 0.056,-0.156 0.077,-0.177C0.098,-0.198 0.124,-0.209 0.155,-0.209C0.186,-0.209 0.212,-0.198 0.233,-0.177C0.253,-0.156 0.263,-0.129 0.263,-0.098C0.263,-0.067 0.253,-0.041 0.233,-0.02C0.212,0.001 0.186,0.012 0.155,0.012Z" style="fill:rgb(0,153,102);fill-rule:nonzero;"/>
                </g>
                <g transform="matrix(191.666667,0,0,191.666667,614.558333,426.865344)">
                    <path d="M0.112,-0L0.112,-0.694L0.308,-0.694L0.308,-0L0.112,-0ZM0.007,-0.332L0.007,-0.492L0.413,-0.492L0.413,-0.332L0.007,-0.332Z" style="fill:rgb(0,153,102);fill-rule:nonzero;"/>
                </g>
                <g transform="matrix(191.666667,0,0,191.666667,689.691667,426.865344)">
                    <path d="M0.303,0.012C0.246,0.012 0.195,0.001 0.152,-0.021C0.109,-0.042 0.075,-0.072 0.051,-0.112C0.026,-0.15 0.014,-0.195 0.014,-0.246C0.014,-0.296 0.026,-0.34 0.05,-0.379C0.073,-0.418 0.106,-0.448 0.147,-0.471C0.188,-0.493 0.235,-0.504 0.287,-0.504C0.338,-0.504 0.384,-0.494 0.423,-0.473C0.462,-0.452 0.493,-0.422 0.515,-0.385C0.538,-0.348 0.549,-0.305 0.549,-0.257C0.549,-0.247 0.549,-0.237 0.547,-0.226C0.546,-0.214 0.544,-0.202 0.541,-0.187L0.097,-0.184L0.097,-0.304L0.468,-0.307L0.377,-0.254C0.377,-0.281 0.374,-0.302 0.367,-0.32C0.361,-0.337 0.352,-0.349 0.339,-0.358C0.326,-0.367 0.31,-0.371 0.291,-0.371C0.271,-0.371 0.254,-0.366 0.239,-0.356C0.224,-0.346 0.213,-0.332 0.206,-0.313C0.198,-0.294 0.194,-0.272 0.194,-0.245C0.194,-0.218 0.198,-0.195 0.207,-0.176C0.215,-0.158 0.227,-0.144 0.243,-0.135C0.259,-0.126 0.279,-0.121 0.303,-0.121C0.326,-0.121 0.347,-0.125 0.364,-0.133C0.382,-0.14 0.398,-0.152 0.413,-0.169L0.511,-0.072C0.486,-0.044 0.457,-0.023 0.422,-0.009C0.387,0.005 0.348,0.012 0.303,0.012Z" style="fill:rgb(0,153,102);fill-rule:nonzero;"/>
                </g>
                <g transform="matrix(191.666667,0,0,191.666667,793,426.865344)">
                    <path d="M0.252,0.01C0.206,0.01 0.165,-0.001 0.13,-0.023C0.095,-0.045 0.067,-0.075 0.047,-0.114C0.027,-0.152 0.017,-0.196 0.017,-0.246C0.017,-0.296 0.027,-0.34 0.047,-0.379C0.067,-0.418 0.095,-0.448 0.13,-0.47C0.165,-0.491 0.206,-0.502 0.252,-0.502C0.281,-0.502 0.307,-0.497 0.332,-0.487C0.356,-0.478 0.376,-0.464 0.393,-0.447C0.409,-0.43 0.419,-0.41 0.424,-0.387L0.424,-0.105C0.419,-0.082 0.409,-0.062 0.393,-0.045C0.376,-0.028 0.356,-0.014 0.332,-0.005C0.307,0.005 0.281,0.01 0.252,0.01ZM0.296,-0.162C0.321,-0.162 0.341,-0.17 0.355,-0.185C0.37,-0.201 0.378,-0.221 0.378,-0.246C0.378,-0.263 0.375,-0.277 0.368,-0.289C0.361,-0.302 0.352,-0.312 0.34,-0.319C0.327,-0.326 0.313,-0.33 0.297,-0.33C0.281,-0.33 0.267,-0.326 0.255,-0.319C0.242,-0.312 0.232,-0.302 0.225,-0.289C0.218,-0.276 0.214,-0.262 0.214,-0.246C0.214,-0.23 0.217,-0.216 0.225,-0.203C0.232,-0.19 0.241,-0.18 0.254,-0.173C0.267,-0.166 0.281,-0.162 0.296,-0.162ZM0.372,-0L0.372,-0.132L0.399,-0.252L0.372,-0.371L0.372,-0.492L0.563,-0.492L0.563,-0L0.372,-0Z" style="fill:rgb(0,153,102);fill-rule:nonzero;"/>
                </g>
                <g transform="matrix(191.666667,0,0,191.666667,905.7,426.865344)">
                    <path d="M0.047,-0L0.047,-0.492L0.243,-0.492L0.243,-0L0.047,-0ZM0.35,-0L0.35,-0.282C0.35,-0.299 0.345,-0.312 0.335,-0.322C0.325,-0.331 0.312,-0.336 0.297,-0.336C0.286,-0.336 0.277,-0.334 0.269,-0.33C0.26,-0.325 0.254,-0.319 0.249,-0.311C0.245,-0.303 0.243,-0.293 0.243,-0.282L0.167,-0.31C0.167,-0.35 0.176,-0.384 0.194,-0.413C0.211,-0.442 0.235,-0.464 0.265,-0.479C0.295,-0.494 0.329,-0.502 0.367,-0.502C0.4,-0.502 0.431,-0.494 0.458,-0.478C0.484,-0.462 0.506,-0.44 0.522,-0.412C0.538,-0.383 0.546,-0.35 0.546,-0.311L0.546,-0L0.35,-0ZM0.653,-0L0.653,-0.282C0.653,-0.299 0.648,-0.312 0.638,-0.322C0.628,-0.331 0.615,-0.336 0.6,-0.336C0.589,-0.336 0.58,-0.334 0.572,-0.33C0.563,-0.325 0.557,-0.319 0.552,-0.311C0.548,-0.303 0.546,-0.293 0.546,-0.282L0.431,-0.281C0.431,-0.327 0.44,-0.367 0.459,-0.4C0.477,-0.433 0.502,-0.458 0.535,-0.476C0.568,-0.493 0.605,-0.502 0.647,-0.502C0.686,-0.502 0.721,-0.494 0.752,-0.477C0.782,-0.46 0.806,-0.436 0.823,-0.405C0.84,-0.374 0.849,-0.336 0.849,-0.292L0.849,-0L0.653,-0Z" style="fill:rgb(0,153,102);fill-rule:nonzero;"/>
                </g>
            </g>
        </g>
    </g>
</svg>
