<svg xmlns="http://www.w3.org/2000/svg" viewBox="0 0 64 64" role="img" aria-labelledby="title desc">
  <title id="title">Agrolex Awn</title>
  <desc id="desc">Six geometric grain forms radiate around one verified center.</desc>
  <g fill="#009966">
    <path d="m32 3 5 8-2 12-3 6-3-6-2-12Z"/>
    <path d="m32 3 5 8-2 12-3 6-3-6-2-12Z" transform="rotate(60 32 32)"/>
    <path d="m32 3 5 8-2 12-3 6-3-6-2-12Z" transform="rotate(120 32 32)"/>
    <path d="m32 3 5 8-2 12-3 6-3-6-2-12Z" transform="rotate(180 32 32)"/>
    <path d="m32 3 5 8-2 12-3 6-3-6-2-12Z" transform="rotate(240 32 32)"/>
    <path d="m32 3 5 8-2 12-3 6-3-6-2-12Z" transform="rotate(300 32 32)"/>
    <path d="m32 26 5.2 3v6L32 38l-5.2-3v-6Z"/>
  </g>
</svg>
