<svg xmlns="http://www.w3.org/2000/svg" viewBox="217 751 2048 2048" role="img" aria-labelledby="agrobot-title agrobot-description">
  <title id="agrobot-title">AgroBot</title>
  <desc id="agrobot-description">Six organic green forms arranged around a central hexagonal seed.</desc>
  <g transform="matrix(2.875715 0 0 2.875715 -133.837809 563.142107)">
    <g transform="translate(-33.226168 -78.796194)">
      <path d="M273.418 507.14c4.825-.777 9.752-1.571 61.079-1.273 69.47.403 91.009 57.849 94.525 83.711 5.446 40.052-14.591 67.112-29.982 97.697-18.633 37.023-57.82 38.895-68.541 38.243-23.986-1.458-84.342-24.731-104.763-69.13-13.322-28.966-8.48-90.944-1.018-107.788 15.594-35.2 44.039-40.102 48.7-41.46Z" fill="#028c66"/>
      <path d="M802.843 565.461c7.189 68.375 4.711 110.793-66.212 146.315-5.74 2.875-53.994 30.843-95.79-2.708-11.207-8.996-13.295-14.405-37.082-59.701-29.678-56.516 3.76-136.105 74.724-143.058 1.013-.1 60.561-1.852 72.032 1.135 45.689 11.896 51.253 52.717 52.328 58.017Z" fill="#028f69"/>
      <path d="M292.499 490.037c-4.065-.042-39.703 3.718-62.613-32.793-.202-.322-15.015-16.313-11.92-81.723 1.771-37.422 16.828-73.303 86.476-98.183 32.003-11.432 73.841-4.407 93.682 29.381.257.438 20.646 38.15 24.11 46.891 20.074 50.66 1.529 124.022-78.717 136.03-4.037.604-4.485.671-51.018.397Z" fill="#028a64"/>
      <path d="M732.502 489.944c-44.906.662-75.026 2.902-105.05-22.386-32.423-27.309-46.522-76.735-22.382-123.291 21.265-41.014 27.452-56.097 53.564-66.452 54.417-21.579 115.046 27.171 125.413 40.045 11.688 14.513 26.28 33.92 19.872 103.682-2.104 22.907-7.809 33.463-19.883 47.54-7.553 8.807-18.887 14.104-20.741 14.97-14.813 6.923-27.845 5.882-30.793 5.892Z" fill="#028d67"/>
      <path d="M485.653 612.937c2.102-.542 16.661-4.291 26.847-3.991 53.94 1.592 77.065 46.869 80.591 53.772 18.832 36.873 42.021 63.266 21.554 100.861-9.737 17.883-82.035 92.767-165.398 38.306-29.26-19.116-59.323-44.267-45.655-88.356 3.026-9.765 32.107-61.91 33.372-63.68 18.679-26.12 36.619-32.387 48.689-36.912Z" fill="#12a77d"/>
      <path d="M489.611 384.113c-10.762-3.554-19.662-6.175-34.453-18.191-13.213-10.735-18.941-20.625-21.948-26.273-28.326-53.197-40.064-65.024-29.437-97.054 1.633-4.922 8.141-24.538 45.933-45.74 63.861-35.828 109.264-11.737 146.47 16.1 4.369 3.268 33.755 25.254 24.964 63.466-.993 4.314-2.553 11.094-24.101 49.814-3.412 6.132-32.466 74.632-107.428 57.878Z" fill="#17ae83"/>
      <path d="M472.338 529.771c-7.175-4.94-7.449-8.096-7.479-16.269-.12-32.733-1.358-38.457 7.903-43.515 33.461-18.276 35.6-23.831 48.598-16.24 32.383 18.915 36.769 17.87 36.764 32.751-.013 34.501 1.804 37.404-8.703 43.864-31.209 19.192-34.518 19.238-37.921 19.286-3.513.049-5.282.074-39.162-19.877Z" fill="#027a56"/>
    </g>
  </g>
</svg>
