<svg xmlns="http://www.w3.org/2000/svg" viewBox="350 260 370 280" fill="none">
  <g fill="#0334EA" fill-rule="evenodd" clip-rule="evenodd">
    <path d="M367.137,383.465C368.072,375.383 371.286,366.697 374.791,360.676C375.293,359.814 378.415,355.309 380.268,353.29C388.345,344.484 398.99,336.41 416.5,334.504C420.238,334.097 420.582,334.06 463.5,334.129C585.393,334.326 585.438,333.78 593.439,334.911C604.511,336.477 614.015,342.217 617.741,345.186C625.366,351.261 625.778,352.345 628.358,355.605C635.866,365.089 637.221,372.037 637.678,373.445C645.166,396.542 634.652,416.361 634.567,416.536C631.233,423.36 627.35,427.708 626.58,428.57C615.325,441.174 604.605,443.622 601.659,444.886C600.504,445.381 600.114,445.226 600.097,446.486C600.087,447.214 602.814,451.363 603.081,451.769C605.529,455.494 605.57,455.452 607.853,459.286C610.827,464.279 616.324,472.683 617.922,475.242C621.701,481.296 621.768,481.245 622.092,481.774C622.579,482.567 626.004,488.154 628.252,491.649C633.182,499.314 635.688,503.675 636.758,505.333C638.835,508.553 638.894,508.51 639.07,508.792C643.662,516.128 643.681,516.11 644.061,516.759C646.746,521.345 646.959,521.227 647.08,521.672C647.177,522.026 646.666,523.193 646.425,523.3C646.252,523.377 643.92,523.302 643.499,523.302C625.999,523.328 626.023,523.351 608.499,523.319C604.949,523.313 604.51,523.439 602.695,520.385C598.001,512.487 597.692,512.689 593.1,504.738C592.895,504.384 574.525,475.272 574.166,474.718C571.215,470.162 571.241,470.168 568.354,465.591C559.5,451.552 559.411,451.635 558.674,450.396C556.274,446.363 541.636,423.3 540.957,422.206C539.413,419.721 539.408,419.75 537.801,417.309C537.644,417.072 536.311,415.048 535.899,414.307C535.816,414.158 534.971,412.64 536.381,412.235C536.782,412.12 562.808,412.297 578.499,412.233C582.019,412.219 594.732,413.841 602.189,402.307C609.758,390.598 602.976,380.14 600.599,377.416C594.057,369.918 586.581,369.598 585.499,369.509C582.575,369.268 463.14,369.407 452.5,369.42C421.561,369.456 418.686,368.953 413.574,371.645C406.008,375.629 404.174,380.45 403.201,382.357C398.182,392.187 403.172,405.586 414.462,410.584C419.85,412.969 420.087,412.472 456.5,412.56C479.921,412.617 494.901,411.119 511.685,423.229C520.074,429.282 523.774,434.881 526.251,438.656C533.722,450.041 535.631,464.536 534.131,475.454C533.655,478.922 531.579,486.837 530.074,490.316C530.062,490.345 526.9,496.384 526.271,497.355C521.924,504.069 519.358,506.197 518.288,507.291C512.368,513.345 503.506,518.61 494.423,521.216C484,524.205 483.776,523.264 386.5,523.392C369.215,523.415 369.025,523.544 368.233,522.714C367.687,522.143 367.792,520.999 367.787,520.494C367.768,518.255 367.635,502.724 367.775,492.505C367.815,489.615 367.609,488.645 370.5,488.639C378.1,488.624 426.232,488.527 465.499,488.69C479.056,488.746 484.822,489.18 491.415,484.375C498.68,479.079 500.005,471.349 500.13,469.465C500.711,460.702 494.798,455.051 493.84,454.135C485.99,446.631 481.463,447.545 463.5,447.509C417.276,447.417 417.07,448.212 404.477,444.58C396.372,442.243 388.168,436.239 385.819,434.154C384.296,432.801 379.498,427.782 378.979,427.101C365.846,409.855 366.031,394.095 367.137,383.465Z"/>
    <path d="M657.03,317.498C657.089,306.754 657.02,305.249 656.323,304.731C655.661,304.239 655.544,304.463 610.5,304.35C586.674,304.291 586.633,304.49 585.683,304.101C584.51,303.62 584.57,302.616 584.621,292.502C584.714,273.736 584.284,272.238 585.311,271.276C585.957,270.67 587.839,270.834 589.506,270.831C596.625,270.817 633.832,270.744 678.499,270.854C691.651,270.886 689.838,284.311 689.839,284.5C689.85,291.061 689.967,361.495 689.827,366.518C689.741,369.611 688.575,369.12 685.494,369.127C658.294,369.195 658.109,369.278 657.457,368.536C657.085,368.112 656.841,367.834 656.965,361.499C657.201,349.441 656.808,324.102 657.03,317.498Z" transform="translate(13.262811 11.052342)"/>
  </g>
</svg>
